<svg width="150" height="23" viewBox="0 0 150 23" fill="none" xmlns="http://www.w3.org/2000/svg">
<path d="M11.0592 22.6581C5.05919 22.6581 0.979194 18.1881 0.979194 11.5881C0.979194 4.98812 5.11919 0.488124 11.1792 0.488124C15.7992 0.488124 19.4292 3.27812 20.2992 7.53812H17.9892C17.0892 4.44812 14.4492 2.55812 11.0892 2.55812C6.37919 2.55812 3.22919 6.15812 3.22919 11.5881C3.22919 16.9881 6.37919 20.5881 11.0892 20.5881C14.4792 20.5881 17.1792 18.7581 18.1092 15.8781H20.4192C19.4292 19.9281 15.6792 22.6581 11.0592 22.6581ZM22.6847 15.0681C22.6847 10.6281 25.8047 7.41812 30.0647 7.41812C34.3247 7.41812 37.4447 10.6281 37.4447 15.0681C37.4447 19.4781 34.3247 22.6881 30.0647 22.6881C25.8047 22.6881 22.6847 19.4781 22.6847 15.0681ZM24.7847 15.0381C24.7847 18.4581 26.9447 20.8281 30.0647 20.8281C33.1547 20.8281 35.3447 18.4581 35.3447 15.0381C35.3447 11.6781 33.1547 9.27812 30.0647 9.27812C26.9447 9.27812 24.7847 11.6781 24.7847 15.0381ZM46.4554 22.6881C42.2254 22.6881 39.7354 19.4481 39.7354 15.0981C39.7354 10.7181 42.2254 7.41812 46.5454 7.41812C48.9454 7.41812 50.8654 8.46812 51.8854 10.5681V0.458124H53.9554V22.3281H52.1554L51.9454 19.3581C50.9254 21.6081 48.8854 22.6881 46.4554 22.6881ZM46.8154 20.7981C49.9954 20.7981 51.8554 18.3981 51.8554 15.0381C51.8554 11.7081 49.9954 9.27812 46.8154 9.27812C43.6654 9.27812 41.8354 11.7081 41.8354 15.0381C41.8354 18.3981 43.6654 20.7981 46.8154 20.7981ZM64.365 22.6881C60.105 22.6881 57.255 19.6281 57.255 15.0681C57.255 10.5381 60.075 7.41812 64.215 7.41812C68.145 7.41812 70.815 10.2081 70.815 14.3181V15.3381H59.265C59.415 18.8781 61.275 20.9181 64.395 20.9181C66.765 20.9181 68.295 19.8981 68.835 17.9781H70.815C70.035 21.0381 67.785 22.6881 64.365 22.6881ZM64.215 9.18812C61.485 9.18812 59.685 10.9881 59.325 13.8381H68.745C68.745 11.0481 66.945 9.18812 64.215 9.18812ZM74.1351 22.3281H71.9451L79.8351 0.848124H82.5051L90.4851 22.3281H88.2351L86.1351 16.6281H76.2351L74.1351 22.3281ZM80.8851 3.87812L76.8951 14.7381H85.4451L81.4251 3.87812C81.3351 3.57812 81.1851 3.21812 81.1551 3.00812C81.1251 3.18812 81.0051 3.57812 80.8851 3.87812ZM95.0911 22.3281H93.0211V7.80812H94.8211L95.1211 10.3281C96.0811 8.46812 98.0011 7.41812 100.101 7.41812C104.091 7.41812 105.741 9.78812 105.741 13.4481V22.3281H103.671V13.8981C103.671 10.5081 102.141 9.30812 99.7411 9.30812C96.7711 9.30812 95.0911 11.4681 95.0911 14.7381V22.3281ZM113.197 22.3281H111.157V9.54812H108.247V7.80812H111.157V3.21812H113.197V7.80812H116.107V9.54812H113.197V22.3281ZM127.573 22.3281H125.383L133.273 0.848124H135.943L143.923 22.3281H141.673L139.573 16.6281H129.673L127.573 22.3281ZM134.323 3.87812L130.333 14.7381H138.883L134.863 3.87812C134.773 3.57812 134.623 3.21812 134.593 3.00812C134.563 3.18812 134.443 3.57812 134.323 3.87812ZM149.069 0.848124V22.3281H146.909V0.848124H149.069Z" fill="#181D27"/>
</svg>
